<svg id="highlight_off_black_24dp" xmlns="http://www.w3.org/2000/svg" width="44" height="44" viewBox="0 0 44 44">
  <path id="Path_3" data-name="Path 3" d="M0,0H44V44H0Z" fill="none"/>
  <path id="Path_4" data-name="Path 4" d="M25.082,13l-4.748,4.748L15.585,13,13,15.585l4.748,4.748L13,25.082l2.585,2.585,4.748-4.748,4.748,4.748,2.585-2.585-4.748-4.748,4.748-4.748ZM20.333,2A18.333,18.333,0,1,0,38.667,20.333,18.317,18.317,0,0,0,20.333,2Zm0,33A14.667,14.667,0,1,1,35,20.333,14.686,14.686,0,0,1,20.333,35Z" transform="translate(1.667 1.667)" fill="#3c3838"/>
</svg>
